<svg width="19" height="19" viewBox="0 0 19 19" fill="none" xmlns="http://www.w3.org/2000/svg">
<path d="M12.5453 0H5.60799C2.51343 0 0 2.51343 0 5.60799V12.5453C0 15.6399 2.51343 18.1533 5.60799 18.1533H12.5453C15.6399 18.1533 18.1533 15.6399 18.1533 12.5453V5.60799C18.1533 2.51343 15.6399 0 12.5453 0ZM16.1266 12.5526C16.1266 14.5285 14.5212 16.1411 12.5381 16.1411H5.60072C3.62485 16.1411 2.01219 14.5357 2.01219 12.5526V5.61525C2.01219 3.63938 3.61759 2.02672 5.60072 2.02672H12.5381C14.5139 2.02672 16.1266 3.63212 16.1266 5.61525V12.5526Z" fill="url(#paint0_linear_77_1231)"/>
<path d="M9.07303 4.43845C6.51602 4.43845 4.43118 6.52328 4.43118 9.08029C4.43118 11.6373 6.51602 13.7221 9.07303 13.7221C11.63 13.7221 13.7149 11.6373 13.7149 9.08029C13.7149 6.52328 11.63 4.43845 9.07303 4.43845ZM9.07303 11.8988C7.51848 11.8988 6.25451 10.6348 6.25451 9.08029C6.25451 7.52575 7.51848 6.26177 9.07303 6.26177C10.6276 6.26177 11.8916 7.52575 11.8916 9.08029C11.8916 10.6348 10.6276 11.8988 9.07303 11.8988Z" fill="url(#paint1_linear_77_1231)"/>
<path d="M14.0684 4.94734C14.4961 4.87802 14.7866 4.47513 14.7172 4.04747C14.6479 3.61982 14.245 3.32933 13.8174 3.39866C13.3897 3.46798 13.0992 3.87087 13.1686 4.29853C13.2379 4.72618 13.6408 5.01667 14.0684 4.94734Z" fill="url(#paint2_linear_77_1231)"/>
<defs>
<linearGradient id="paint0_linear_77_1231" x1="14" y1="1.5" x2="2" y2="15" gradientUnits="userSpaceOnUse">
<stop stop-color="#F03260"/>
<stop offset="1" stop-color="#E6AA11"/>
</linearGradient>
<linearGradient id="paint1_linear_77_1231" x1="14" y1="1.5" x2="2" y2="15" gradientUnits="userSpaceOnUse">
<stop stop-color="#F03260"/>
<stop offset="1" stop-color="#E6AA11"/>
</linearGradient>
<linearGradient id="paint2_linear_77_1231" x1="14" y1="1.5" x2="2" y2="15" gradientUnits="userSpaceOnUse">
<stop stop-color="#F03260"/>
<stop offset="1" stop-color="#E6AA11"/>
</linearGradient>
</defs>
</svg>
