<svg width="18" height="15" viewBox="0 0 18 15" fill="none" xmlns="http://www.w3.org/2000/svg">
<path d="M16.011 0.706611C16.011 0.706611 17.6299 0.0910552 17.4945 1.58586C17.4499 2.20141 17.0453 4.35606 16.7302 6.68623L15.6509 13.5894C15.6509 13.5894 15.5609 14.6007 14.7512 14.7766C13.9419 14.9521 12.7276 14.1611 12.5026 13.9851C12.3226 13.8531 9.12965 11.8744 8.00533 10.9074C7.69029 10.6433 7.33025 10.1159 8.05034 9.50031L12.7722 5.10326C13.3119 4.57587 13.8515 3.34476 11.6029 4.83957L5.30623 9.0164C5.30623 9.0164 4.58655 9.45643 3.23763 9.06069L0.313914 8.18104C0.313914 8.18104 -0.765394 7.5216 1.0786 6.86216C5.57627 4.79568 11.1082 2.68533 16.0101 0.706611H16.011Z" fill="#389ECA"/>
</svg>
