<svg width="19" height="19" viewBox="0 0 19 19" fill="none" xmlns="http://www.w3.org/2000/svg">
<path d="M12.5453 0.446289H5.60799C2.51343 0.446289 0 2.95971 0 6.05428V12.9916C0 16.0862 2.51343 18.5996 5.60799 18.5996H12.5453C15.6399 18.5996 18.1533 16.0862 18.1533 12.9916V6.05428C18.1533 2.95971 15.6399 0.446289 12.5453 0.446289ZM16.1266 12.9989C16.1266 14.9748 14.5212 16.5874 12.5381 16.5874H5.60072C3.62485 16.5874 2.01219 14.982 2.01219 12.9989V6.06154C2.01219 4.08567 3.61759 2.47301 5.60072 2.47301H12.5381C14.5139 2.47301 16.1266 4.07841 16.1266 6.06154V12.9989Z" fill="white"/>
<path d="M9.07303 4.88474C6.51602 4.88474 4.43118 6.96957 4.43118 9.52658C4.43118 12.0836 6.51602 14.1684 9.07303 14.1684C11.63 14.1684 13.7149 12.0836 13.7149 9.52658C13.7149 6.96957 11.63 4.88474 9.07303 4.88474ZM9.07303 12.3451C7.51848 12.3451 6.25451 11.0811 6.25451 9.52658C6.25451 7.97204 7.51848 6.70806 9.07303 6.70806C10.6276 6.70806 11.8916 7.97204 11.8916 9.52658C11.8916 11.0811 10.6276 12.3451 9.07303 12.3451Z" fill="white"/>
<path d="M14.0684 5.39363C14.4961 5.3243 14.7866 4.92142 14.7172 4.49376C14.6479 4.0661 14.245 3.77562 13.8174 3.84495C13.3897 3.91427 13.0992 4.31716 13.1686 4.74481C13.2379 5.17247 13.6408 5.46296 14.0684 5.39363Z" fill="white"/>
</svg>
