<svg width="18" height="15" viewBox="0 0 18 15" fill="none" xmlns="http://www.w3.org/2000/svg">
<path d="M16.011 0.1529C16.011 0.1529 17.6299 -0.462656 17.4945 1.03215C17.4499 1.6477 17.0453 3.80235 16.7302 6.13252L15.6509 13.0357C15.6509 13.0357 15.5609 14.047 14.7512 14.2229C13.9419 14.3984 12.7276 13.6074 12.5026 13.4314C12.3226 13.2994 9.12965 11.3207 8.00533 10.3536C7.69029 10.0895 7.33025 9.56216 8.05034 8.9466L12.7722 4.54955C13.3119 4.02216 13.8515 2.79105 11.6029 4.28586L5.30623 8.46269C5.30623 8.46269 4.58655 8.90272 3.23763 8.50698L0.313914 7.62732C0.313914 7.62732 -0.765394 6.96789 1.0786 6.30845C5.57627 4.24197 11.1082 2.13161 16.0101 0.1529H16.011Z" fill="white"/>
</svg>
