<svg width="30" height="18" viewBox="0 0 30 18" fill="none" xmlns="http://www.w3.org/2000/svg">
<path d="M15 18C7.05464 18 0.80372 10.2568 0.541676 9.9275C0.406717 9.75797 0.333374 9.54877 0.333374 9.33335C0.333374 9.11793 0.406717 8.90873 0.541676 8.73921C0.80372 8.40987 7.05464 0.666687 15 0.666687C22.9454 0.666687 29.1964 8.40987 29.4584 8.73921C29.5934 8.90873 29.6667 9.11793 29.6667 9.33335C29.6667 9.54877 29.5934 9.75797 29.4584 9.9275C29.1964 10.2568 22.9454 18 15 18ZM2.595 9.33335C4.17802 11.0802 9.20672 16.0741 15 16.0741C20.7934 16.0741 25.8221 11.0802 27.4051 9.33335C25.8221 7.58654 20.7934 2.59261 15 2.59261C9.20672 2.59261 4.17802 7.58654 2.595 9.33335Z" fill="#AEAEAE"/>
<path d="M15 14.1482C14.0331 14.1482 13.0879 13.8658 12.2839 13.3367C11.48 12.8077 10.8533 12.0557 10.4833 11.1759C10.1133 10.2961 10.0165 9.32801 10.2051 8.39403C10.3937 7.46005 10.8594 6.60213 11.5431 5.92877C12.2268 5.2554 13.0979 4.79683 14.0463 4.61105C14.9946 4.42527 15.9776 4.52062 16.8709 4.88504C17.7643 5.24947 18.5278 5.86659 19.065 6.65839C19.6022 7.45018 19.8889 8.38107 19.8889 9.33335C19.8874 10.6099 19.3718 11.8336 18.4553 12.7363C17.5388 13.6389 16.2962 14.1466 15 14.1482ZM15 6.44447C14.4199 6.44447 13.8528 6.6139 13.3704 6.93133C12.888 7.24877 12.512 7.69995 12.29 8.22782C12.068 8.7557 12.0099 9.33656 12.1231 9.89695C12.2363 10.4573 12.5156 10.9721 12.9259 11.3761C13.3361 11.7801 13.8588 12.0553 14.4278 12.1667C14.9968 12.2782 15.5866 12.221 16.1226 12.0023C16.6586 11.7837 17.1167 11.4134 17.439 10.9383C17.7613 10.4633 17.9334 9.90472 17.9334 9.33335C17.9334 8.56717 17.6243 7.83237 17.0742 7.2906C16.5241 6.74883 15.778 6.44447 15 6.44447Z" fill="#AEAEAE"/>
</svg>
