<svg width="30" height="23" viewBox="0 0 30 23" fill="none" xmlns="http://www.w3.org/2000/svg">
<path d="M15 20C14.2308 19.9985 13.4633 19.9268 12.707 19.786C12.4724 19.7485 12.2588 19.6287 12.1046 19.448C11.9503 19.2673 11.8654 19.0376 11.865 18.8C11.8675 18.6535 11.9017 18.5093 11.9651 18.3772C12.0286 18.2451 12.1199 18.1284 12.2328 18.0349C12.3456 17.9414 12.4774 17.8735 12.6189 17.8357C12.7605 17.7979 12.9086 17.7912 13.053 17.816C13.695 17.9369 14.3467 17.9985 15 18C20.924 18 26.069 12.813 27.687 11C26.6089 9.79318 25.4241 8.68603 24.147 7.69203C24.0431 7.6116 23.9561 7.51149 23.8909 7.39743C23.8257 7.28336 23.7837 7.15758 23.7671 7.02725C23.7336 6.76404 23.8061 6.49832 23.9685 6.28853C24.131 6.07874 24.3701 5.94208 24.6333 5.90861C24.7636 5.89203 24.8959 5.90129 25.0227 5.93585C25.1494 5.97041 25.2681 6.02959 25.372 6.11003C27.0001 7.36442 28.4815 8.79849 29.788 10.385C29.9258 10.561 30.0007 10.778 30.0007 11.0015C30.0007 11.225 29.9258 11.4421 29.788 11.618C29.519 11.959 23.124 20 15 20Z" fill="#AEAEAE"/>
<path d="M25.707 0.293031C25.5195 0.10556 25.2652 0.000244141 25 0.000244141C24.7348 0.000244141 24.4805 0.10556 24.293 0.293031L21.113 3.47303C19.9091 2.89286 18.6352 2.47069 17.323 2.21703C16.5571 2.07301 15.7794 2.00036 15 2.00003C6.87601 2.00003 0.481011 10.041 0.213011 10.383C0.0752309 10.559 0.000366211 10.776 0.000366211 10.9995C0.000366211 11.223 0.0752309 11.4401 0.213011 11.616C1.51826 13.2012 2.9983 14.6339 4.62501 15.887C5.39452 16.4901 6.20073 17.0449 7.03901 17.548L4.29301 20.293C4.1975 20.3853 4.12132 20.4956 4.06891 20.6176C4.0165 20.7396 3.98891 20.8708 3.98776 21.0036C3.98661 21.1364 4.01191 21.2681 4.06219 21.391C4.11247 21.5139 4.18672 21.6255 4.28062 21.7194C4.37451 21.8133 4.48616 21.8876 4.60906 21.9379C4.73195 21.9881 4.86363 22.0134 4.99641 22.0123C5.12919 22.0111 5.26041 21.9835 5.38242 21.9311C5.50442 21.8787 5.61476 21.8025 5.70701 21.707L25.707 1.70703C25.8945 1.5195 25.9998 1.26519 25.9998 1.00003C25.9998 0.734866 25.8945 0.480558 25.707 0.293031ZM5.85301 14.309C4.57592 13.3147 3.39112 12.2072 2.31301 11C3.93101 9.18803 9.07601 4.00003 15 4.00003C15.658 4.00055 16.3144 4.06215 16.961 4.18403C17.8663 4.35626 18.7506 4.62444 19.599 4.98403L17.757 6.82603C16.7956 6.19076 15.6442 5.90709 14.4977 6.02299C13.3512 6.13889 12.2799 6.64726 11.4651 7.4621C10.6502 8.27694 10.1419 9.34822 10.026 10.4947C9.91007 11.6412 10.1937 12.7926 10.829 13.754L8.50001 16.087C7.57387 15.5623 6.68898 14.968 5.85301 14.309ZM12.3 12.284C12.1051 11.8839 12.0026 11.4451 12 11C12.0002 10.2067 12.3136 9.44553 12.872 8.88203C13.3172 8.45866 13.8789 8.17815 14.4848 8.07657C15.0907 7.97499 15.7131 8.057 16.272 8.31203L12.3 12.284Z" fill="#AEAEAE"/>
</svg>
