<svg width="133" height="50" viewBox="0 0 133 50" fill="none" xmlns="http://www.w3.org/2000/svg">
<path fill-rule="evenodd" clip-rule="evenodd" d="M0.788353 25.6263C0.412669 36.8286 0.142098 45.3476 0.142098 46.046V47.2509H11.6462C24.4136 47.2509 23.5318 47.2722 24.437 46.9754C26.0877 46.436 27.3237 45.1652 27.8201 43.4948C28.5598 41.0095 27.2692 38.2972 24.8574 37.2748C24.4214 37.0924 23.7654 36.9236 23.3625 36.8945C23.2029 36.8829 21.4919 36.8732 19.555 36.8674L16.0337 36.8615L15.8235 36.7568C15.5588 36.6248 15.2824 36.3493 15.1675 36.103C15.0352 35.8061 15.0468 35.3211 15.1948 35.0359C15.3447 34.7449 15.6094 34.5024 15.8741 34.4034C16.0941 34.32 16.205 34.32 23.0141 34.32H29.9282L29.934 36.8053C29.934 38.9879 29.9457 39.3682 30.0119 39.8745C30.1988 41.316 30.7341 42.6411 31.5964 43.8013C32.8811 45.5494 34.7245 46.694 36.9105 47.1073C37.4283 47.2062 37.5898 47.2179 38.384 47.2179C39.1724 47.2179 39.3378 47.2062 39.8517 47.1073C43.5657 46.4088 46.2967 43.522 46.7659 39.8144C46.8204 39.3915 46.8321 38.8308 46.8321 36.8053V34.32H53.2557L53.279 47.2276L69.4957 47.2509L69.5191 39.7155L76.3826 47.2509H79.0085C80.4548 47.2509 81.6344 47.2392 81.6344 47.2295C81.6344 47.2179 79.5866 44.9635 77.0873 42.2201C74.5879 39.4768 72.507 37.1933 72.4681 37.1448C72.3961 37.0672 72.4856 36.9857 76.0595 33.7399L79.7287 30.4184L73.9241 30.3951L72.0924 32.0559C71.0822 32.9697 70.177 33.7942 70.0739 33.8932C69.9746 33.9863 69.8033 34.1415 69.704 34.2288L69.5171 34.3995L69.5055 31.7978C69.4996 30.3738 69.4996 28.0243 69.5055 26.5789L69.5171 23.9559L69.8208 24.2372L70.1245 24.5127L71.1289 24.243C71.6759 24.0995 72.1333 23.9734 72.1392 23.9675C72.1606 23.9501 69.5405 16.7523 69.5016 16.7134C69.4841 16.696 68.6081 17.247 67.5492 17.9338L65.624 19.1871L65.6007 43.3241H57.1916V34.32L63.6755 34.2967V30.4126L42.9 30.3893V34.8225C42.9 37.4125 42.8825 39.3546 42.8611 39.502C42.6294 40.9494 41.7301 42.191 40.4337 42.8352C38.0006 44.0555 35.0535 42.8895 34.1269 40.3382C33.868 39.6184 33.8739 39.6999 33.8739 34.8225V30.3893H24.9139C16.2459 30.3893 15.9422 30.3951 15.5004 30.4727C13.5091 30.82 11.9129 32.2382 11.362 34.1473C10.5503 36.9585 12.2457 39.8939 15.0916 40.6157C15.3174 40.67 15.6814 40.7321 15.8975 40.7418C16.1135 40.7592 17.8343 40.7689 19.7263 40.7748L23.1639 40.7806L23.4073 40.9067C23.6603 41.0328 23.8764 41.2481 23.9971 41.5004C24.1139 41.7312 24.1236 42.2977 24.0185 42.5461C23.9075 42.8041 23.67 43.0583 23.4112 43.1941L23.2009 43.3047L9.18577 43.3279L9.16436 42.905C9.13711 42.4549 7.93998 6.41532 7.93998 6.09714C7.93998 5.85462 8.07234 5.64703 8.27089 5.58107L8.41494 5.53644L8.43635 5.19498C8.45387 4.87099 8.4636 4.84382 8.59013 4.73324C8.66799 4.66727 8.76142 4.61295 8.81009 4.61295C8.88211 4.61295 8.88795 4.58579 8.88795 4.32193C8.88795 3.90869 9.04173 3.66229 9.29672 3.66229C9.38432 3.66229 9.39016 3.65065 9.38042 3.40426L9.36875 3.14622L7.48059 3.12294V3.01235C7.48059 2.81446 7.3638 2.28675 7.27036 2.02872C6.92972 1.1479 6.21339 0.455283 5.31408 0.131284C4.88389 -0.0278056 4.54714 -0.0394463 4.18314 0.0808408C3.2994 0.377678 2.63174 0.944192 2.24048 1.73576C2.0575 2.10438 1.88815 2.69806 1.88815 2.98907V3.121L0 3.14428V3.39262C0 3.62931 0.00583964 3.64095 0.126526 3.66811C0.198548 3.68946 0.297822 3.75154 0.352326 3.81168C0.43992 3.90481 0.457439 3.96495 0.469119 4.26179C0.486638 4.59743 0.486638 4.60325 0.595644 4.62459C0.655987 4.64205 0.755261 4.69637 0.815605 4.75652C0.914879 4.85546 0.932398 4.90591 0.94213 5.20274L0.95381 5.53838L1.08617 5.58301C1.33533 5.66643 1.40541 5.7809 1.41709 6.11072C1.42877 6.27369 1.14262 15.0566 0.788353 25.6263ZM36.3849 28.6452L37.2628 27.7702L36.3635 26.868L35.4584 25.9717L34.5591 26.8738L33.6597 27.7702L34.5435 28.651C35.0243 29.1302 35.4428 29.526 35.4642 29.526C35.4856 29.526 35.8983 29.1302 36.3849 28.6452ZM42.2226 28.6452L43.1064 27.7702L41.3019 25.9717L40.4026 26.8738L39.5033 27.7702L40.3812 28.651C40.8659 29.1302 41.2805 29.526 41.3019 29.526C41.3233 29.526 41.7418 29.1302 42.2226 28.6452ZM79.2032 42.0649C80.34 44.7481 82.6953 46.6067 85.6268 47.1364L86.1679 47.2295H101.91L101.921 42.1697L101.927 37.1099L114.854 50V34.3219H121.315L121.338 47.2295H125.229L125.253 34.3219H133V25.4614C133 15.7434 133.006 16.0577 132.751 14.7986C132.243 12.29 130.913 9.78918 129.13 7.96353C128.396 7.21076 126.68 5.91283 126.045 5.62569L125.862 5.54809L125.63 5.66837C125.504 5.73434 125.146 5.95357 124.836 6.15728C121.807 8.15366 119.666 11.349 118.977 14.9227C118.899 15.3069 118.823 15.8035 118.806 16.0169C118.794 16.2323 118.767 16.4302 118.751 16.4574C118.734 16.4903 118.701 16.275 118.673 15.984C118.49 13.9876 117.636 11.6672 116.421 9.88036C115.726 8.8521 114.623 7.65311 113.651 6.87706C113.17 6.49292 112.328 5.92059 111.925 5.69941L111.621 5.54032L111.362 5.67225C110.944 5.89149 109.889 6.62291 109.314 7.0963C108.421 7.83354 107.372 9.01507 106.722 10.0103C105.53 11.8302 104.746 14.0031 104.541 16.0713C104.52 16.3196 104.491 16.5272 104.481 16.5388C104.475 16.5447 104.448 16.308 104.421 16.0111C104.316 14.8781 103.973 13.5414 103.482 12.3327C102.472 9.8629 100.674 7.66863 98.4507 6.19608C98.1412 5.99237 97.783 5.76732 97.6506 5.69553C97.5241 5.62375 97.3917 5.56361 97.3645 5.56361C97.1601 5.56361 95.8754 6.42696 95.052 7.11376C94.3298 7.71907 93.8004 8.25843 93.2417 8.95105C91.5424 11.0735 90.5321 13.5433 90.2674 16.2381C90.2168 16.7775 90.207 17.5477 90.207 20.4229V23.9481H91.5307V20.4676C91.5307 16.6514 91.5482 16.2381 91.774 15.1051C92.3541 12.1852 93.9755 9.5777 96.3601 7.74624C96.6092 7.55416 96.9401 7.32329 97.0881 7.23017L97.3587 7.05361L97.6117 7.21852C98.0691 7.50372 98.7485 8.03337 99.2234 8.47766C101.133 10.2587 102.408 12.5034 102.92 15.0003C103.163 16.1722 103.173 16.4088 103.173 20.357V23.9481H105.783V20.5064C105.783 16.729 105.801 16.2983 106.027 15.1284C106.583 12.2473 108.217 9.60099 110.568 7.78698C110.817 7.59491 111.152 7.35239 111.319 7.24763L111.611 7.06138L111.794 7.16614C112.005 7.28643 113.03 8.06247 113.217 8.2332C113.801 8.77256 114.023 8.99179 114.403 9.42638C115.777 10.9882 116.737 12.9011 117.173 14.9635C117.41 16.0907 117.422 16.3603 117.422 20.3356V23.9481H120.075L120.069 20.3395C120.069 16.4671 120.075 16.2323 120.279 15.1536C120.754 12.678 122.018 10.3693 123.882 8.59213C124.529 7.98099 125.702 7.09048 125.874 7.09048C125.957 7.09048 126.298 7.30971 126.824 7.70549C129.175 9.49234 130.808 12.0552 131.425 14.9382C131.678 16.1198 131.674 15.951 131.674 23.5019V30.3932H110.959V40.5788L97.9913 27.6421V43.326L86.2069 43.2969L85.7923 43.1708C84.9533 42.9128 84.4355 42.6101 83.834 42.0261C83.4817 41.6788 83.0827 41.1628 82.9736 40.9047L82.9133 40.7612H95.2077L95.2583 40.5419C95.3518 40.1403 95.4296 39.3371 95.4296 38.7376C95.4296 36.3513 94.3201 33.9921 92.467 32.4129C89.9832 30.2962 86.4911 29.8015 83.507 31.1479C80.3847 32.5622 78.4148 35.7557 78.5686 39.1664C78.6114 40.249 78.81 41.1453 79.2032 42.0649ZM86.9874 36.879C84.7411 36.879 82.9094 36.8674 82.9211 36.8518C83.1313 36.3901 83.5615 35.8178 83.9742 35.455C84.7294 34.7837 85.6463 34.3995 86.639 34.3219C86.8551 34.3045 87.0809 34.2948 87.1354 34.3045C87.1957 34.3103 87.3728 34.3258 87.5325 34.3433C87.914 34.3763 88.6147 34.58 88.9788 34.7604C89.7905 35.1678 90.6002 35.9536 90.9876 36.7063L91.0752 36.8771H86.9874V36.879ZM4.67951 13.2465H2.75437V11.124C2.75437 8.8133 2.77189 8.66003 2.99185 8.03919C3.17482 7.54446 3.47265 7.08272 3.86974 6.68111C4.06829 6.4774 4.32134 6.25817 4.43229 6.18638C4.54909 6.1146 4.65809 6.06028 4.68145 6.06028C4.76515 6.0661 4.97928 6.20384 5.22843 6.40756C5.73648 6.83632 6.16083 7.44164 6.38663 8.05665C6.59686 8.63481 6.61243 8.8424 6.61243 11.1317V13.2484H4.67951V13.2465Z" fill="#208197"/>
</svg>
