<svg width="49" height="33" viewBox="0 0 49 33" fill="none" xmlns="http://www.w3.org/2000/svg">
<g clip-path="url(#clip0_62_1797)">
<path d="M47.9178 5.14708C47.6368 4.15224 47.0885 3.24526 46.3277 2.51648C45.5669 1.78771 44.62 1.26255 43.5813 0.9933C39.7789 0 24.4752 0 24.4752 0C24.4752 0 9.17069 0.0300666 5.36822 1.02337C4.32955 1.29263 3.38265 1.81782 2.62181 2.54663C1.86097 3.27544 1.31274 4.18245 1.03172 5.17733C-0.118444 11.6486 -0.564612 21.5094 1.0633 27.7218C1.34435 28.7167 1.8926 29.6237 2.65343 30.3524C3.41427 31.0812 4.36116 31.6064 5.3998 31.8756C9.20228 32.8689 24.5064 32.8689 24.5064 32.8689C24.5064 32.8689 39.8102 32.8689 43.6125 31.8756C44.6512 31.6064 45.5981 31.0813 46.359 30.3525C47.1199 29.6237 47.6681 28.7167 47.9492 27.7218C49.1623 21.2414 49.5362 11.3868 47.9178 5.14727V5.14708Z" fill="#FF0000"/>
<path d="M19.6035 23.4777L32.2991 16.4344L19.6035 9.39105V23.4777Z" fill="white"/>
</g>
<defs>
<clipPath id="clip0_62_1797">
<rect width="49" height="33" fill="white"/>
</clipPath>
</defs>
</svg>
